<svg xmlns="http://www.w3.org/2000/svg" width="128.859" height="128.856" viewBox="0 0 128.859 128.856">
  <g id="Group_14" data-name="Group 14" transform="translate(-1630.354 488.5)">
    <path id="Path_56" data-name="Path 56" d="M1686.31-467.4a34.86,34.86,0,0,0-34.861,34.861,34.86,34.86,0,0,0,34.861,34.859,34.859,34.859,0,0,0,34.86-34.859A34.86,34.86,0,0,0,1686.31-467.4Zm0,66.928a32.066,32.066,0,0,1-32.066-32.067,32.067,32.067,0,0,1,32.066-32.068,32.067,32.067,0,0,1,32.067,32.068A32.066,32.066,0,0,1,1686.31-400.475Z" transform="translate(8.462 8.463)" fill="#fff"/>
    <path id="Path_57" data-name="Path 57" d="M1670.8-430.879a2.168,2.168,0,0,0-1.585-.653,2.252,2.252,0,0,0-1.586.653,2.151,2.151,0,0,0-.653,1.559,2.225,2.225,0,0,0,.653,1.611,2.169,2.169,0,0,0,1.586.654,2.278,2.278,0,0,0,1.56-.629,2.253,2.253,0,0,0,.653-1.586A2.241,2.241,0,0,0,1670.8-430.879Zm-.3,2.919a1.424,1.424,0,0,1-1.006.377,1.9,1.9,0,0,1-1.383-.628,1.93,1.93,0,0,1-.629-1.435,1.315,1.315,0,0,1,.4-.956,1.381,1.381,0,0,1,1.006-.4,1.973,1.973,0,0,1,1.435.628,1.888,1.888,0,0,1,.628,1.283A1.456,1.456,0,0,1,1670.5-427.96Z" transform="translate(14.693 22.853)" fill="#fff"/>
    <path id="Path_58" data-name="Path 58" d="M1681.846-430.879a2.149,2.149,0,0,0-1.56-.653,2.267,2.267,0,0,0-1.611.653,2.153,2.153,0,0,0-.654,1.559,2.227,2.227,0,0,0,.654,1.611,2.169,2.169,0,0,0,1.586.654,2.232,2.232,0,0,0,1.56-.629,2.177,2.177,0,0,0,.678-1.586A2.265,2.265,0,0,0,1681.846-430.879Zm-.3,2.919a1.424,1.424,0,0,1-1.006.377,1.855,1.855,0,0,1-1.359-.628,1.96,1.96,0,0,1-.653-1.435,1.337,1.337,0,0,1,.428-.956,1.3,1.3,0,0,1,1.006-.4,1.962,1.962,0,0,1,1.41.628,1.889,1.889,0,0,1,.628,1.283A1.456,1.456,0,0,1,1681.544-427.96Z" transform="translate(19.122 22.853)" fill="#fff"/>
    <path id="Path_59" data-name="Path 59" d="M1685.293-430.409a1.505,1.505,0,0,0-1.233-.554,1.42,1.42,0,0,0-.88.327,2.331,2.331,0,0,0-.429.427v-1.836c0-.151.025-.277.025-.427a2.723,2.723,0,0,0,.025-.328c0-.126-.076-.151-.1-.151s-.05.025-.075.025a1.727,1.727,0,0,0-.15.177c-.126.126-.227.252-.328.352l-.327.328c-.126.126-.177.151-.177.175a.2.2,0,0,0-.049.126c0,.025.026.076.049.076.05.025.076.025.1,0a.658.658,0,0,0,.177-.076c.076-.076.126-.076.126-.076h.025v4.1a.757.757,0,0,1-.1.453c-.025.05-.076.076-.177.126a.135.135,0,0,0-.076.1c0,.024.025.049.05.1l.2.2a.347.347,0,0,1,.076.1c.025.05.074.076.1.1.05.076.1.076.177.025a.676.676,0,0,0,.176-.2,1.41,1.41,0,0,1,.125-.2,1.209,1.209,0,0,0,.4.3,1.489,1.489,0,0,0,.678.151,1.861,1.861,0,0,0,1.51-.755,2.886,2.886,0,0,0,.553-1.761A2,2,0,0,0,1685.293-430.409Zm-.6,2.917a1.175,1.175,0,0,1-1.031.629.946.946,0,0,1-.655-.226.976.976,0,0,1-.252-.68V-429.1a1.437,1.437,0,0,1,.328-.93,1.135,1.135,0,0,1,.829-.352,1.02,1.02,0,0,1,.856.453,1.892,1.892,0,0,1,.3,1.082A2.513,2.513,0,0,1,1684.689-427.492Z" transform="translate(20.555 22.284)" fill="#fff"/>
    <path id="Path_60" data-name="Path 60" d="M1689.769-426.737c0,.025,0,.1-.151.1h-.151c-.175,0-.276-.025-.327-.025a.7.7,0,0,0-.252.025h-.226c-.151,0-.176-.076-.176-.1,0-.05.025-.076.076-.126.076-.076.126-.1.15-.151a.134.134,0,0,0,.076-.1v-4.73h-.025s-.05,0-.125.076a1.487,1.487,0,0,1-.177.076c-.051.025-.076.025-.1,0a.132.132,0,0,1-.05-.1c0-.025.025-.05.05-.1,0-.024.05-.074.227-.251.125-.1.2-.2.276-.252.076-.1.2-.2.3-.352a1.014,1.014,0,0,1,.175-.177.025.025,0,0,0,.025-.025h.051c.025,0,.1,0,.1.126,0,.1-.025.227-.025.353a2.3,2.3,0,0,0-.025.427v4.931a.133.133,0,0,0,.075.1.668.668,0,0,0,.152.126v.025A.138.138,0,0,1,1689.769-426.737Z" transform="translate(23.249 22.284)" fill="#fff"/>
    <path id="Path_61" data-name="Path 61" d="M1688.945-427.407a.269.269,0,0,1-.076-.126.27.27,0,0,1-.076-.175,6.144,6.144,0,0,1-.126-.806c-.05-.4-.1-.73-.151-.956a2.7,2.7,0,0,0-.327-.907,2.493,2.493,0,0,0-.754-.855,1.87,1.87,0,0,0-.982-.3,2.27,2.27,0,0,0-.855.175.7.7,0,0,0-.4.629.647.647,0,0,0,.177.5.606.606,0,0,0,.452.177.7.7,0,0,0,.4-.126.572.572,0,0,0,.2-.4.354.354,0,0,0-.125-.252.505.505,0,0,0-.277-.15.092.092,0,0,0-.076.025c-.025.025-.05.05-.025.1,0,.05,0,.076.025.1v.1c0,.025,0,.05-.05.076a.131.131,0,0,1-.1.05.137.137,0,0,1-.125-.076.213.213,0,0,1-.05-.177.342.342,0,0,1,.175-.326.959.959,0,0,1,.479-.1,1.3,1.3,0,0,1,.83.326,3.328,3.328,0,0,1,.6.7,1.752,1.752,0,0,1,.151.328c-.1-.05-.2-.126-.328-.177a1.652,1.652,0,0,0-.678-.151,1.821,1.821,0,0,0-1.233.453,1.479,1.479,0,0,0-.528,1.157,1.376,1.376,0,0,0,.478,1.107,1.842,1.842,0,0,0,1.157.4,1.634,1.634,0,0,0,.93-.3,1.485,1.485,0,0,0,.453-.427l.025.175c0,.05-.025.076-.025.1-.025.05-.025.076-.051.126-.025.025-.05.05-.05.076s.025.1.177.1h.126a.946.946,0,0,1,.377,0h.151c.1,0,.126-.051.126-.1A.192.192,0,0,0,1688.945-427.407Zm-1.182-.553a1.183,1.183,0,0,1-.855.3,1.187,1.187,0,0,1-.806-.3.956.956,0,0,1-.328-.755.823.823,0,0,1,.328-.7,1.125,1.125,0,0,1,.781-.3,1.414,1.414,0,0,1,.88.277.826.826,0,0,1,.327.7A.977.977,0,0,1,1687.763-427.96Z" transform="translate(21.96 22.853)" fill="#fff"/>
    <path id="Path_62" data-name="Path 62" d="M1677.847-426.737c0,.025-.025.1-.177.1h-.126c-.175,0-.276-.025-.352-.025a.56.56,0,0,0-.227.025h-.226c-.151,0-.177-.076-.177-.1,0-.05.025-.076.051-.126.076-.076.151-.1.177-.151a.133.133,0,0,0,.076-.1v-4.73h-.05s-.025,0-.126.076c-.1.05-.126.076-.151.076-.05.025-.1.025-.1,0a.132.132,0,0,1-.05-.1.19.19,0,0,1,.025-.1,1.969,1.969,0,0,1,.252-.251l.252-.252c.1-.1.2-.2.327-.352a1.826,1.826,0,0,1,.151-.177c.025,0,.025,0,.05-.025h.049s.1,0,.1.126c-.026.1-.026.227-.051.353v5.358a.133.133,0,0,0,.076.1.372.372,0,0,0,.151.126v.025A.138.138,0,0,1,1677.847-426.737Z" transform="translate(18.466 22.284)" fill="#fff"/>
    <path id="Path_63" data-name="Path 63" d="M1684.852-455.609v6.993l-.83-.956-.629,1.132c0-2.264-.025-4.278,0-6.29C1683.393-455.207,1683.871-455.434,1684.852-455.609Z" transform="translate(21.272 13.194)" fill="#fff"/>
    <path id="Path_64" data-name="Path 64" d="M1692.615-455.179c-1.408.83-2.818,1.686-4.2,2.515v.025l-5.258,3.169,5.258-2.189c.226-.1.478-.2.7-.326,0,.779.05,1.433,0,2.088a1.769,1.769,0,0,1-.88,1.485c-2.289,1.358-4.553,2.666-6.793,4.049a2.377,2.377,0,0,1-2.841-.076,43.579,43.579,0,0,0-5.309-3.144c-.176-.1-.326-.177-.478-.276a3.459,3.459,0,0,1-1.51-1.561,3.534,3.534,0,0,1-.074-2.465v-.05l5.911,2.465-.326-.175c-.227-.126-.377-.2-.428-.227-2.893-1.736-5.787-3.471-8.68-5.232-.981-.6-.981-.755.025-1.258,3.723-1.913,7.472-3.824,11.2-5.735a2.478,2.478,0,0,1,2.338,0q5.662,2.942,11.372,5.836C1693.4-455.883,1693.37-455.656,1692.615-455.179Z" transform="translate(14.692 10.474)" fill="#fff"/>
    <path id="Path_65" data-name="Path 65" d="M1701.173-435.07c-8.931-2.113-16.654.579-24.049,5.634a17.212,17.212,0,0,1,2.893-3.42c3.119-3.045,6.716-5.334,11.169-5.913a14.488,14.488,0,0,1,2.088-.125c.7,0,.831-.151.4-.806-1.862-2.793-3.647-5.61-5.484-8.428-.3-.427-.528-.754,0-1.282.452-.453.2-1.208.2-1.837-.025-.553.076-.754.679-.553a5.831,5.831,0,0,1,3.1,2.34c2.766,4.554,5.636,9.032,8.477,13.534C1700.822-435.673,1700.973-435.423,1701.173-435.07Z" transform="translate(18.762 14.692)" fill="#fff"/>
    <path id="Path_66" data-name="Path 66" d="M1691.242-440.363a22.855,22.855,0,0,0-14.366,8.478c-.025-.579-.049-.981-.074-1.384-.025-4.251-.05-8.477-.126-12.729a1.818,1.818,0,0,1,1.082-1.786c1.912-1.031,3.773-2.163,5.61-3.319.7-.429,1.157-.479,1.408.326.478,1.484,1.635,2.465,2.39,3.773C1688.449-444.791,1689.832-442.628,1691.242-440.363Z" transform="translate(18.582 14.879)" fill="#fff"/>
    <path id="Path_67" data-name="Path 67" d="M1679.958-431.768a22.681,22.681,0,0,0-14.415-8.6c.428-.7.78-1.332,1.183-1.962,1.837-2.944,3.673-5.837,5.484-8.78.252-.353.4-.429.781-.227,2.264,1.233,4.4,2.616,6.616,3.925a.988.988,0,0,1,.452.855C1680.034-441.73,1680.135-436.875,1679.958-431.768Z" transform="translate(14.116 14.863)" fill="#fff"/>
    <path id="Path_68" data-name="Path 68" d="M1682.221-429.525c-7.245-4.981-14.994-7.6-23.824-5.509a2.241,2.241,0,0,1,.427-.881c2.969-4.678,5.988-9.308,8.855-14.037.73-1.183,4.152-2.416,5.461-1.987.779.276.251.6.1.829-1.987,3.119-4,6.214-5.987,9.333-.478.7-.905,1.41-1.408,2.113-.378.553-.5.856.4.831C1672.812-438.858,1678.372-434.783,1682.221-429.525Z" transform="translate(11.25 14.632)" fill="#fff"/>
    <path id="Path_69" data-name="Path 69" d="M1664.13-431.592a2.789,2.789,0,0,0-.579,1.761,3.268,3.268,0,0,0,.729,2.113,2.217,2.217,0,0,0,1.811.905h.278c.1-.025.251-.05.4-.1a.675.675,0,0,0,.276-.1c-.025-.025-.049-.076-.074-.1s-.05-.1-.1-.177c-.025-.076-.05-.175-.076-.276v-2.239a.8.8,0,0,1-.227.076,1.029,1.029,0,0,1-.3.025,1,1,0,0,1-.5-.177,1.093,1.093,0,0,0-.428-.177.286.286,0,0,0-.2.076.117.117,0,0,0-.075.126c0,.05,0,.1.05.126,0,.025.05.05.1.025.05,0,.076,0,.1-.025h.025c.024-.05.049-.076.074-.076a.108.108,0,0,1,.1.1,1.055,1.055,0,0,1,.025.125.151.151,0,0,1-.025.1c0,.051-.05.1-.126.177a.441.441,0,0,1-.251.1.393.393,0,0,1-.328-.177.761.761,0,0,1-.125-.377v-.076a.774.774,0,0,1,.276-.5.817.817,0,0,1,.579-.2,1.473,1.473,0,0,1,.579.1,2.875,2.875,0,0,0,.905.226,1.729,1.729,0,0,0,.328-.049c.126-.05.251-.1.352-.151h.025c.076,0,.1.025.1.05.025.025.025.05,0,.1a.635.635,0,0,0-.126.15.7.7,0,0,0-.175.478v1.787a1.2,1.2,0,0,0,.125.553c.025.025.076.1.2.252a.093.093,0,0,1,.025.076c0,.049,0,.074-.05.1a2.07,2.07,0,0,1-.73.3,4.193,4.193,0,0,1-1.183.177,2.887,2.887,0,0,1-2.214-.982,3.317,3.317,0,0,1-.905-2.313,3.215,3.215,0,0,1,.781-2.165,2.653,2.653,0,0,1,2.088-.905,2.859,2.859,0,0,1,.956.177,4.047,4.047,0,0,0,.578.15c.277,0,.3-.1.3-.2a.132.132,0,0,0-.05-.1.132.132,0,0,0-.1-.05h-.051c-.025,0-.025.025-.05.025h-.076a.081.081,0,0,1-.076-.076c0-.05,0-.076.025-.1a.448.448,0,0,1,.2-.226.909.909,0,0,1,.276-.05.47.47,0,0,1,.4.177.555.555,0,0,1,.125.4.538.538,0,0,1-.226.453,1.391,1.391,0,0,1-1.233.05,3.764,3.764,0,0,0-1.031-.252A1.817,1.817,0,0,0,1664.13-431.592Z" transform="translate(13.014 22.183)" fill="#fff"/>
    <path id="Path_70" data-name="Path 70" d="M1673.484-431.592a2.8,2.8,0,0,0-.579,1.761,3.249,3.249,0,0,0,.705,2.113,2.284,2.284,0,0,0,1.81.905h.3c.1-.025.227-.05.4-.1a.867.867,0,0,0,.277-.1.135.135,0,0,1-.076-.1.543.543,0,0,1-.1-.177.5.5,0,0,1-.076-.276c0-.126-.025-.252-.025-.429v-1.81a1.04,1.04,0,0,1-.2.076,1.333,1.333,0,0,1-.328.025,1.085,1.085,0,0,1-.5-.177,1.012,1.012,0,0,0-.4-.177.407.407,0,0,0-.227.076.116.116,0,0,0-.076.126.193.193,0,0,0,.05.126.111.111,0,0,0,.126.025c.025,0,.076,0,.076-.025h.025a.135.135,0,0,1,.1-.076.112.112,0,0,1,.076.1.185.185,0,0,1,.025.125v.1a.577.577,0,0,1-.126.177.532.532,0,0,1-.252.1.439.439,0,0,1-.352-.177.711.711,0,0,1-.1-.377v-.076a.682.682,0,0,1,.276-.5.78.78,0,0,1,.579-.2,1.554,1.554,0,0,1,.579.1,2.6,2.6,0,0,0,.906.226,1.254,1.254,0,0,0,.3-.049l.378-.151h.025a.132.132,0,0,1,.1.05c0,.025.025.05,0,.1h-.026a.685.685,0,0,1-.125.15.858.858,0,0,0-.177.478v1.787a.956.956,0,0,0,.151.553.848.848,0,0,0,.175.252c.025.025.05.05.05.076a.131.131,0,0,1-.05.1,2.252,2.252,0,0,1-.754.3,4.046,4.046,0,0,1-1.157.177,2.937,2.937,0,0,1-2.239-.982,3.405,3.405,0,0,1-.881-2.313,3.1,3.1,0,0,1,.78-2.165,2.64,2.64,0,0,1,2.063-.905,2.762,2.762,0,0,1,.957.177,3.188,3.188,0,0,0,.6.15c.252,0,.3-.1.3-.2a.131.131,0,0,0-.05-.1.194.194,0,0,0-.126-.05h-.025a.088.088,0,0,0-.05.025h-.1c-.025,0-.05-.05-.05-.076,0-.05,0-.076.025-.1a.4.4,0,0,1,.175-.226,1.266,1.266,0,0,1,.3-.05.5.5,0,0,1,.4.177.69.69,0,0,1,.126.4.505.505,0,0,1-.252.453,1.331,1.331,0,0,1-1.208.05,3.76,3.76,0,0,0-1.031-.252A1.784,1.784,0,0,0,1673.484-431.592Z" transform="translate(16.767 22.183)" fill="#fff"/>
    <path id="Path_71" data-name="Path 71" d="M1689.945-425.386a1.41,1.41,0,0,1-.427,1.031,1.51,1.51,0,0,1-1.056.453.925.925,0,0,1-.528-.151.518.518,0,0,1-.252-.427.361.361,0,0,1,.1-.252.244.244,0,0,1,.225-.1.34.34,0,0,1,.227.05.2.2,0,0,1,.1.2.366.366,0,0,1-.05.177.193.193,0,0,1-.1.05c-.025,0-.076-.05-.076-.05v-.025h-.025a.025.025,0,0,0-.025-.025.088.088,0,0,1-.025.051c0,.05.025.126.151.175a.7.7,0,0,0,.328.076.913.913,0,0,0,.7-.352,1.184,1.184,0,0,0,.3-.806.93.93,0,0,0-.151-.528.529.529,0,0,0-.427-.226.907.907,0,0,0-.278.05c-.076.049-.15.074-.175.15v.05c-.025,0-.025.05-.025.076l-.025.025c-.025.025-.05.025-.1.025h-.126l-.05.076.025-.076h-.025a.17.17,0,0,1-.1-.151l.05-.276a1.226,1.226,0,0,0,.025-.3c0-.326-.025-.528-.025-.579,0-.025.025-.05.025-.076l.025-.049c.025-.025.05-.025.1-.025.151.025.3.05.453.074a3.086,3.086,0,0,0,.478.05c.126,0,.177,0,.2-.025.051-.025.051-.049.051-.049v-.05a.135.135,0,0,1-.076-.1.35.35,0,0,1,.051-.076.15.15,0,0,1,.1-.025h.076a.352.352,0,0,1,.226.076.455.455,0,0,1,.1.226.327.327,0,0,1-.227.3.83.83,0,0,1-.377.076,2.156,2.156,0,0,1-.553-.05,2.189,2.189,0,0,1-.352-.076v.377a.7.7,0,0,1-.025.227.923.923,0,0,1,.2-.126,1.044,1.044,0,0,1,.479-.126.808.808,0,0,1,.653.3A1.123,1.123,0,0,1,1689.945-425.386Z" transform="translate(22.997 24.531)" fill="#fff"/>
    <path id="Path_72" data-name="Path 72" d="M1687.52-425.974a6.468,6.468,0,0,0-.05.78,1.836,1.836,0,0,0,.076.553.868.868,0,0,0,.151.352.093.093,0,0,1,.025.076c0,.025,0,.05-.05.076l-.025.025c-.05,0-.076,0-.1.025-.05,0-.076,0-.1.025-.051.025-.076.025-.1.05l-.125.05h-.025a.081.081,0,0,1-.076-.076,1.24,1.24,0,0,1-.075-.326c0-.151-.025-.3-.025-.454a8.117,8.117,0,0,1,.1-.981,7.985,7.985,0,0,1,.175-.8.353.353,0,0,1-.427.05.218.218,0,0,1-.1-.177v-.1c.025-.025.05-.076.076-.1l.05-.025.076.05.025.05h.05a.275.275,0,0,0,.251-.126,2.27,2.27,0,0,1,.151-.226.092.092,0,0,1,.126-.05.111.111,0,0,1,.076.025c.025.025.05.025.076.05s.051.05.051.074,0,.05-.025.05c-.05.2-.1.378-.126.479A3.749,3.749,0,0,0,1687.52-425.974Z" transform="translate(22.629 24.564)" fill="#fff"/>
    <path id="Path_73" data-name="Path 73" d="M1686.886-426.781a1.048,1.048,0,0,0-.856-.478.866.866,0,0,0-.453.126.41.41,0,0,0-.2.3h-.025a.131.131,0,0,0-.1.05,1.347,1.347,0,0,0-.3.528,1.754,1.754,0,0,0-.177.78,1.856,1.856,0,0,0,.3,1.107.981.981,0,0,0,.829.427,1.134,1.134,0,0,0,.932-.553,1.885,1.885,0,0,0,.377-1.157A2.013,2.013,0,0,0,1686.886-426.781Zm-.353,2.239a.654.654,0,0,1-.528.276.612.612,0,0,1-.553-.377,2.227,2.227,0,0,1-.226-1.082,1.672,1.672,0,0,1,.049-.478,2.141,2.141,0,0,1,.126-.427.51.51,0,0,0,.076.125.35.35,0,0,0,.252.126.332.332,0,0,0,.2-.076.215.215,0,0,0,.075-.15.194.194,0,0,0,.025-.076c0-.05,0-.076-.025-.1-.025-.076-.05-.076-.075-.076-.051,0-.076.025-.076.05a.024.024,0,0,0-.024.025.047.047,0,0,1-.075,0v-.05c0-.1.025-.2.226-.2s.378.151.528.429a2.465,2.465,0,0,1,.253,1.107A1.62,1.62,0,0,1,1686.533-424.542Z" transform="translate(21.83 24.567)" fill="#fff"/>
    <path id="Path_74" data-name="Path 74" d="M1685.065-424.492v.025c-.025.025-.05.076-.076.1-.025.05-.025.074-.05.125,0,.025-.025.05-.025.1v.1a.172.172,0,0,1-.1.1c-.025,0-.05-.025-.076-.025a1.413,1.413,0,0,0-.3-.1,3.117,3.117,0,0,0-.528-.05,2.016,2.016,0,0,0-.578.076s-.076.025-.251.1h-.025c-.025,0-.05,0-.05-.025-.025,0-.025-.025-.025-.076v-.025a.826.826,0,0,1,.126-.3c.076-.1.15-.227.226-.328a4.185,4.185,0,0,1,.578-.629,2.739,2.739,0,0,0,.478-.453,1,1,0,0,0,.177-.6.519.519,0,0,0-.177-.427.471.471,0,0,0-.428-.2.638.638,0,0,0-.4.126.436.436,0,0,0-.151.3.487.487,0,0,0,.025.2.179.179,0,0,0,.151.076c.025,0,.05-.025.076-.025l.05-.05.025-.025v-.025c.024-.025.049-.076.1-.076h.025l.025.025a.213.213,0,0,1,.051.151.23.23,0,0,1,.025.126.239.239,0,0,1-.151.226.374.374,0,0,1-.276.1.438.438,0,0,1-.351-.175.62.62,0,0,1-.126-.378.72.72,0,0,1,.3-.6.989.989,0,0,1,.654-.226,1.082,1.082,0,0,1,.7.226.9.9,0,0,1,.327.755.729.729,0,0,1-.126.453,1.511,1.511,0,0,1-.276.353,2.822,2.822,0,0,0-.377.3c-.126.1-.252.177-.378.276l-.276.277a1.768,1.768,0,0,0-.176.227.67.67,0,0,1,.3-.076,1.873,1.873,0,0,1,.553-.051h.452c.025-.025.05-.025.1-.05.024,0,.074-.025.1-.025a.122.122,0,0,1,.1,0C1685.065-424.567,1685.09-424.542,1685.065-424.492Z" transform="translate(21.11 24.567)" fill="#fff"/>
    <path id="Path_75" data-name="Path 75" d="M1730.6-435.636a17.377,17.377,0,0,1-3.982,3.549c-3.248,2.444-6.284,5.128-9.33,7.8a28.049,28.049,0,0,0-8.578,14.62c-1.115,4.365-1.89,8.788-2.7,13.2a10.576,10.576,0,0,1-.694,2.594,6.315,6.315,0,0,1-6.657,2.5.078.078,0,0,1-.041-.02c-.01-.021-.02-.031-.029-.051h-.01v-.01a.081.081,0,0,1-.05-.081.11.11,0,0,1-.031-.08.225.225,0,0,1,.06.09,9.836,9.836,0,0,0,1.086-4.433,33.015,33.015,0,0,0-1.106-9.874,43.443,43.443,0,0,0-3.57-10.015,7.375,7.375,0,0,0-1.146-2.323,4.035,4.035,0,0,1,.825-1.065,36.262,36.262,0,0,0,7.329-12.881,12.548,12.548,0,0,1,.715-2.313h2.473a35.08,35.08,0,0,0,7.038-.513,39.256,39.256,0,0,0,12.982-4.041,11.04,11.04,0,0,0,4.173-3.55c-.051-.01-.1-.02-.14-.029,0-.011.02-.031.029-.041a.063.063,0,0,1,.041-.01.326.326,0,0,1,.241,0h.01a.133.133,0,0,1,.041.039C1731.154-441.177,1731.787-437.416,1730.6-435.636Z" transform="translate(25.459 18.402)" fill="#fff"/>
    <path id="Path_76" data-name="Path 76" d="M1730.073-428.488a1.088,1.088,0,0,1-.532.552.183.183,0,0,1-.1.05c-.039,0-.08-.01-.12-.01s-.1-.02-.14-.029c0-.011.02-.031.029-.041a.063.063,0,0,1,.041-.01,9.873,9.873,0,0,0-2.343-2.232c-6.637-4.334-14.087-5.551-21.82-5.7-.814,0-1.618-.01-2.432-.01-.111-.312-.241-.614-.322-.926a32.379,32.379,0,0,0-5.3-11.3c-.995-1.358-2.081-2.654-3.127-3.981.084-.2.167-.392.251-.589l.755-1.775a22.817,22.817,0,0,0,1.88-4.373,44.326,44.326,0,0,0,2.865-13.988,21.89,21.89,0,0,0-.975-5.942.085.085,0,0,1-.07,0l.02-.02a.376.376,0,0,1,.151-.151,6.509,6.509,0,0,1,1.97-.111,6.5,6.5,0,0,1,4.536,2.584,20.62,20.62,0,0,1,1.226,5.441,80.875,80.875,0,0,0,3.922,15.655,20.948,20.948,0,0,0,4.515,6.938,98.914,98.914,0,0,0,12.971,11.191,10.652,10.652,0,0,1,2.6,2.514A6.3,6.3,0,0,1,1730.073-428.488Z" transform="translate(25.494 3.773)" fill="#fff"/>
    <path id="Path_77" data-name="Path 77" d="M1669.515-418.18a11.91,11.91,0,0,0-1.107,2.343c-.251.513-.532,1.016-.754,1.538a50.628,50.628,0,0,0-3.7,13.162,19.542,19.542,0,0,0,.765,9.622.15.15,0,0,1,.09-.02.076.076,0,0,0-.02.041,1.029,1.029,0,0,1-.995.412c-2.354-.121-4.445-.785-5.773-2.937a16.685,16.685,0,0,1-1.086-4.635c-.954-5.68-2-11.352-4.192-16.721a21.048,21.048,0,0,0-4.194-6.424,103.416,103.416,0,0,0-13.353-11.453,12.09,12.09,0,0,1-2.473-2.383,6.552,6.552,0,0,1,1.026-6.939.039.039,0,0,1,.031-.01c.02-.02.039-.02.049-.029a.492.492,0,0,1,.211-.011l.01.011c.01.01.031.02.041.039a.3.3,0,0,1-.091.021,10.109,10.109,0,0,0,4.314,3.619,43.011,43.011,0,0,0,19.9,4.515,6.255,6.255,0,0,0,2.444-.13,12.314,12.314,0,0,1,.4,1.2,31.648,31.648,0,0,0,4.806,10.548C1666.951-421.156,1668.379-419.788,1669.515-418.18Z" transform="translate(0.725 18.401)" fill="#fff"/>
    <path id="Path_78" data-name="Path 78" d="M1669.479-452.212c-1.045,1.286-2.141,2.533-3.106,3.88a35.846,35.846,0,0,0-5.731,12.459c-.815,0-1.629.01-2.443.01a45.388,45.388,0,0,0-16.752,3.026,16.322,16.322,0,0,0-7.4,4.9c.01.01.031.02.04.039a.3.3,0,0,1-.091.021.635.635,0,0,0-.14-.011.185.185,0,0,1-.08-.02.735.735,0,0,1-.354-.272c-1.086-1.447-1.89-4.564-.532-6.616,1.69-2.061,3.982-3.417,6.012-5.076,4-3.248,8.034-6.457,11.242-10.538a26.361,26.361,0,0,0,4.223-9.25,135.888,135.888,0,0,0,2.927-13.716,9.779,9.779,0,0,1,.744-2.875c1.3-2.222,3.438-2.785,5.781-2.947a.791.791,0,0,1,.884.4v.021l.011.01a.008.008,0,0,1,.008.008l0,.011a.309.309,0,0,1,.019.1q-.044.061-.181.029a34.894,34.894,0,0,0-.754,3.52,30.263,30.263,0,0,0,.956,10.408,44.6,44.6,0,0,0,3.639,10.266A7.352,7.352,0,0,0,1669.479-452.212Z" transform="translate(0.731 3.728)" fill="#fff"/>
    <path id="Path_79" data-name="Path 79" d="M1713.961-400.528a6.951,6.951,0,0,1-4.746,3.87,2.012,2.012,0,0,1-.773.041,2.8,2.8,0,0,1-.292-.091,15.668,15.668,0,0,1-4.174-1.407,84.99,84.99,0,0,0-15.082-4.866,25.1,25.1,0,0,0-11.463.7,110.463,110.463,0,0,0-13.835,4.917,6.943,6.943,0,0,1-2.333.684c-2.182.282-5.278-1.789-5.8-3.9a.614.614,0,0,1,.041-.443c.01-.02.02-.031.029-.05s0-.01.011-.02.02.01.03.029a17.378,17.378,0,0,0,7.049-3.347,41.4,41.4,0,0,0,7.069-6.768,35.493,35.493,0,0,0,4-5.379,8.705,8.705,0,0,0,1.358-2.142,2.489,2.489,0,0,1,.894.111,33.906,33.906,0,0,0,14.53.643,27.18,27.18,0,0,1,3.891-.744,8.344,8.344,0,0,0,1.387,2.142,4.544,4.544,0,0,0,.241.482,52.278,52.278,0,0,0,8.236,9.5c2.815,2.544,5.853,4.716,9.693,5.439a.11.11,0,0,1-.031-.08.225.225,0,0,1,.06.09l.021.071v.01h.01c.01.02.02.029.029.051A.483.483,0,0,1,1713.961-400.528Z" transform="translate(10.062 27.998)" fill="#fff"/>
    <path id="Path_80" data-name="Path 80" d="M1714.052-477.681a.25.25,0,0,1-.031.05.01.01,0,0,1-.01.011c-.02-.011-.02-.021-.031-.031a18.5,18.5,0,0,0-8.2,4.2,49.633,49.633,0,0,0-10.025,11.282,10.742,10.742,0,0,0-1.377,2.1,35.07,35.07,0,0,0-19.305.01,4.623,4.623,0,0,0-1.369-2.032,4.688,4.688,0,0,0-.352-.724,49.622,49.622,0,0,0-7.45-8.757c-3.036-2.766-6.2-5.309-10.408-6.094a.38.38,0,0,1-.02.111.084.084,0,0,1-.051-.05h-.011l-.008-.008-.011-.01v-.021a3.127,3.127,0,0,1,.946-1.98,6.2,6.2,0,0,1,4.917-2.474c2.746.635,5.239,1.962,7.863,2.917a86.094,86.094,0,0,0,10.87,3.308,25.291,25.291,0,0,0,12.066-.594,126.8,126.8,0,0,0,13.353-4.716,11.114,11.114,0,0,1,2.926-.9,6.248,6.248,0,0,1,5.742,4.044A.477.477,0,0,1,1714.052-477.681Z" transform="translate(10.043 2.569)" fill="#fff"/>
    <path id="Path_81" data-name="Path 81" d="M1684.517-399.33a6.478,6.478,0,0,1-6.4,6.511,6.472,6.472,0,0,1-6.381-6.529,6.439,6.439,0,0,1,6.354-6.455A6.457,6.457,0,0,1,1684.517-399.33Z" transform="translate(16.599 33.174)" fill="#fff"/>
    <path id="Path_82" data-name="Path 82" d="M1648.492-461.46a6.446,6.446,0,0,1-6.455,6.464,6.5,6.5,0,0,1-6.322-6.612,6.456,6.456,0,0,1,6.385-6.35A6.385,6.385,0,0,1,1648.492-461.46Z" transform="translate(2.149 8.24)" fill="#fff"/>
    <path id="Path_83" data-name="Path 83" d="M1678.1-475.579a6.349,6.349,0,0,1-6.353-6.437,6.4,6.4,0,0,1,6.429-6.484,6.457,6.457,0,0,1,6.329,6.414A6.419,6.419,0,0,1,1678.1-475.579Z" transform="translate(16.605)" fill="#fff"/>
    <path id="Path_84" data-name="Path 84" d="M1648.466-419.9a6.416,6.416,0,0,1-6.363,6.553,6.5,6.5,0,0,1-6.376-6.483,6.5,6.5,0,0,1,6.351-6.507A6.418,6.418,0,0,1,1648.466-419.9Z" transform="translate(2.155 24.937)" fill="#fff"/>
    <path id="Path_85" data-name="Path 85" d="M1707.834-461.482a6.507,6.507,0,0,1,6.454-6.5,6.449,6.449,0,0,1,6.3,6.543,6.476,6.476,0,0,1-6.4,6.448A6.483,6.483,0,0,1,1707.834-461.482Z" transform="translate(31.081 8.232)" fill="#fff"/>
    <path id="Path_86" data-name="Path 86" d="M1720.593-419.919a6.51,6.51,0,0,1-6.286,6.573,6.519,6.519,0,0,1-6.466-6.574,6.461,6.461,0,0,1,6.333-6.416A6.451,6.451,0,0,1,1720.593-419.919Z" transform="translate(31.084 24.937)" fill="#fff"/>
    <path id="Path_87" data-name="Path 87" d="M1693.058-401.07a6.877,6.877,0,0,0,5.819-4.337c1.611-.018,3.232.112,4.7-.831.734-.472,1.326-1.1,2.042-1.588-1.027,3.235-2.643,6-6.168,6.972A10.625,10.625,0,0,1,1693.058-401.07Z" transform="translate(25.154 32.363)" fill="#fff"/>
    <path id="Path_88" data-name="Path 88" d="M1663.2-401c-4.093,1.146-8.245.654-10.578-2.735a11.289,11.289,0,0,1-2-4.2c1.126,1.026,2.193,2.142,3.8,2.424a4.673,4.673,0,0,0,2.9.08.149.149,0,0,1,.09-.02.087.087,0,0,1,.071.041c.01,0,.02.01.029.029a6,6,0,0,0,3.781,3.932A5.005,5.005,0,0,0,1663.2-401Z" transform="translate(8.129 32.319)" fill="#fff"/>
    <path id="Path_89" data-name="Path 89" d="M1663.161-481.948a22,22,0,0,0-2.382.775,6.2,6.2,0,0,0-3.38,3.66.38.38,0,0,1-.02.111.09.09,0,0,1-.041.06c-.029.041-.089.05-.181.031-.371-.714-1-.342-1.508-.3a7.572,7.572,0,0,0-5.017,2.665c1.387-4.866,4.423-7.782,9.411-7.491A14.077,14.077,0,0,1,1663.161-481.948Z" transform="translate(8.135 2.423)" fill="#fff"/>
    <path id="Path_90" data-name="Path 90" d="M1705.582-475.136a8.762,8.762,0,0,0-3.036-1.952c-.453-.12-.905-.27-1.358-.4a5.47,5.47,0,0,0-2.171,0l-.041.05a.086.086,0,0,1-.07,0,.056.056,0,0,1-.05-.029c-.02-.01-.02-.021-.029-.031a6.282,6.282,0,0,0-4.6-4.153c-.352-.1-.7-.181-1.057-.27C1699.216-483.553,1703.561-481.612,1705.582-475.136Z" transform="translate(25.2 2.419)" fill="#fff"/>
    <path id="Path_91" data-name="Path 91" d="M1719.267-440.575a7.851,7.851,0,0,0,1.453-4.748,14.177,14.177,0,0,1-.372-2.127c4.233,4.426,4.276,9.388.047,13.751a18.783,18.783,0,0,0,.371-2.769A7.537,7.537,0,0,0,1719.267-440.575Z" transform="translate(35.668 16.467)" fill="#fff"/>
    <path id="Path_92" data-name="Path 92" d="M1633.616-447.51a7.407,7.407,0,0,0,.967,6.906,21.031,21.031,0,0,0-1.252,2.675,6.359,6.359,0,0,0,.045,3.274,3.079,3.079,0,0,1,.078.978C1629.323-438.1,1629.265-443.1,1633.616-447.51Z" transform="translate(0 16.443)" fill="#fff"/>
    <g id="Group_11" data-name="Group 11" transform="translate(1719.399 -450.718)">
      <path id="Path_93" data-name="Path 93" d="M1694.911-461.535c-.332.794-.674,1.579-1.006,2.364Z" transform="translate(-1693.905 461.535)" fill="#fff"/>
    </g>
    <path id="Path_94" data-name="Path 94" d="M1683.38-450.482h0v-.006Z" transform="translate(21.271 15.249)" fill="#fff"/>
    <path id="Path_95" data-name="Path 95" d="M1683.383-450.486v.006h0Z" transform="translate(21.272 15.249)" fill="#fff"/>
  </g>
</svg>
